<svg xmlns="http://www.w3.org/2000/svg" xml:space="preserve" viewBox="0 0 760 568"><path fill="#fbac30" d="M470.5 567.31.47 284 470.5.69z"/><path fill="#12b17d" d="M470.5 567.31 356.27 466.45l114.23-51.8zM356.27 101.55 470.5.69v152.66z"/><path fill="#bb255c" d="M759.53 284 356.27 466.45v-364.9z"/><path d="M189.48 294.52h-24.31l12.16-41.96zm56.54 49.57L200.71 213.9h-46.78l-45.31 130.19h42.18l4.42-15.22h44.2l4.42 15.22zm63.26 0 45.31-130.18h-42.18l-26.52 87.63-26.52-87.63h-42.18l45.31 130.18z"/><path fill="#fff" d="M459.92 344.09v-48.6h54.7v-34.35h-54.7v-12.88h55.99v-34.35h-93.2v130.18zm-91.59-130.18h37.2V344.1h-37.2z"/></svg>