<svg xmlns="http://www.w3.org/2000/svg" fill="none" viewBox="0 0 440 175"><g filter="url(#a)"><g clip-path="url(#b)"><rect width="128" height="128" x="24" y="14" fill="#fff" rx="16"/><path fill="url(#c)" d="M24 14h128v128H24z"/><path fill="url(#d)" d="M24 14h128v128H24z"/><g filter="url(#e)"><circle cx="88" cy="84" r="50" fill="#48eae6"/></g><use stroke-width="16" href="#f"/><path fill="#0d2759" d="M68 46H52l16 32zm40 0h16l-16 32z" opacity=".3" style="mix-blend-mode:multiply"/><g opacity=".6" style="mix-blend-mode:multiply"><path fill="url(#g)" d="M52 46h16v24H52z"/><path fill="url(#h)" d="M108 46h16v24h-16z"/></g><g opacity=".6" style="mix-blend-mode:multiply"><mask id="j" width="128" height="64" x="24" y="46" maskUnits="userSpaceOnUse" style="mask-type:alpha"><use stroke-width="16" href="#f"/></mask><g filter="url(#i)" mask="url(#j)"><path fill="#0d2759" d="m40 130 48-72 48 72z"/></g></g><path fill="#fff" d="M52 46h20l16 24 16-24h20l-24 36 23.979 36H104L88 94l-16 24H52l24-36z"/></g><rect width="132" height="132" x="22" y="12" stroke="#fff" stroke-width="4" rx="18"/></g><path fill="#0d2759" d="M205.748 58.136h4.528v38.87q0 3.77-1.633 6.799a12.3 12.3 0 0 1-4.602 4.803q-2.969 1.773-7.051 1.774-5.27 0-8.611-2.735-3.266-2.733-4.379-7.537l3.934-1.404a14.4 14.4 0 0 0 1.559 3.916 7.7 7.7 0 0 0 2.82 2.808q1.856 1.035 4.677 1.035 3.192 0 5.121-1.478t2.747-3.621q.89-2.217.89-4.36zm34.746 26.16q4.602 0 7.422-1.405 2.895-1.404 4.157-3.916 1.336-2.512 1.336-5.764 0-5.247-3.043-8.203-2.97-2.956-9.872-2.956h-12.916v22.244zm17.369-11.085q0 3.177-1.039 5.986A13 13 0 0 1 253.632 84q-2.152 1.996-5.419 3.178-3.266 1.108-7.719 1.108h-12.916v21.578h-4.528V58.136h17.444q6.16 0 9.946 1.995t5.567 5.394q1.856 3.4 1.856 7.686m41.017-11.159h-28.949v19.435h21.749v3.917h-21.749v20.544h28.949v3.916h-33.477V58.136h33.477zm47.017 11.307q-2.672-5.69-7.646-8.72-4.9-3.03-11.282-3.03-5.939 0-10.763 2.734-4.75 2.735-7.571 7.76-2.747 4.95-2.747 11.897 0 6.873 2.747 11.898 2.82 5.025 7.571 7.759 4.824 2.66 10.763 2.66 4.527 0 8.461-1.626t6.755-4.655q2.895-3.104 4.38-7.39v-6.355h-19.299v-3.695h23.826v10.346a25.5 25.5 0 0 1-5.121 9.089q-3.415 3.917-8.314 6.134-4.9 2.217-10.688 2.217-5.493 0-10.169-1.922t-8.165-5.394q-3.489-3.547-5.419-8.35Q301.36 89.837 301.36 84q0-5.839 1.856-10.641 1.93-4.878 5.419-8.35 3.488-3.548 8.165-5.47 4.676-1.92 10.169-1.92 5.196 0 9.649 1.699 4.454 1.7 7.794 4.951 3.414 3.178 5.419 7.612zm5.906-15.223h15.068l11.654 16.553 10.911-16.553h15.068L386.393 84l18.111 25.864h-15.068l-10.911-16.553-11.654 16.553h-15.068L370.583 84z"/><path fill="#0d2759" d="M417.361 58.136v40.94H440v10.788h-35.555V58.136z"/><defs><linearGradient id="c" x1="88" x2="88" y1="14" y2="142" gradientUnits="userSpaceOnUse"><stop offset=".25" stop-color="#0d2759"/><stop offset=".531" stop-color="#2061df"/></linearGradient><linearGradient id="d" x1="88" x2="88" y1="46.32" y2="139.44" gradientUnits="userSpaceOnUse"><stop stop-color="#15b7b3" stop-opacity="0"/><stop offset=".732" stop-color="#15b7b3"/></linearGradient><linearGradient id="g" x1="60" x2="60" y1="46" y2="70" gradientUnits="userSpaceOnUse"><stop offset=".1" stop-color="#0d2759"/><stop offset="1" stop-color="#0d2759" stop-opacity="0"/></linearGradient><linearGradient id="h" x1="116" x2="116" y1="46" y2="70" gradientUnits="userSpaceOnUse"><stop offset=".1" stop-color="#0d2759"/><stop offset="1" stop-color="#0d2759" stop-opacity="0"/></linearGradient><filter id="a" width="174.4" height="174.4" x=".8" y=".4" color-interpolation-filters="sRGB" filterUnits="userSpaceOnUse"><feFlood flood-opacity="0" result="BackgroundImageFix"/><feColorMatrix in="SourceAlpha" result="hardAlpha" values="0 0 0 0 0 0 0 0 0 0 0 0 0 0 0 0 0 0 127 0"/><feOffset dy="9.6"/><feGaussianBlur stdDeviation="9.6"/><feComposite in2="hardAlpha" operator="out"/><feColorMatrix values="0 0 0 0 0.0705882 0 0 0 0 0.188235 0 0 0 0 0.34902 0 0 0 0.3 0"/><feBlend in2="BackgroundImageFix" result="effect1_dropShadow_296_3335"/><feBlend in="SourceGraphic" in2="effect1_dropShadow_296_3335" result="shape"/></filter><filter id="e" width="164" height="164" x="6" y="2" color-interpolation-filters="sRGB" filterUnits="userSpaceOnUse"><feFlood flood-opacity="0" result="BackgroundImageFix"/><feBlend in="SourceGraphic" in2="BackgroundImageFix" result="shape"/><feGaussianBlur result="effect1_foregroundBlur_296_3335" stdDeviation="16"/></filter><filter id="i" width="116" height="92" x="30" y="48" color-interpolation-filters="sRGB" filterUnits="userSpaceOnUse"><feFlood flood-opacity="0" result="BackgroundImageFix"/><feBlend in="SourceGraphic" in2="BackgroundImageFix" result="shape"/><feGaussianBlur result="effect1_foregroundBlur_296_3335" stdDeviation="5"/></filter><clipPath id="b"><rect width="128" height="128" x="24" y="14" fill="#fff" rx="16"/></clipPath><path id="f" stroke="#fff" d="M60 46v36c0 11.046-8.954 20-20 20H24m92-56v36c0 11.046 8.954 20 20 20h16"/></defs></svg>