<svg xmlns="http://www.w3.org/2000/svg" viewBox="0 0 107 29"><path fill="#020202" d="M.57 11.69q0-2.91-.57-3.93l3.63-.99q.33.54.54 1.56 1.62-1.56 3.75-1.56 1.89 0 3.12 1.26.24.24.6.75 1.98-2.01 4.35-2.01 2.04 0 3.18 1.11.99.96.99 3.6V22.4h-3.9V12.26q0-1.17-.12-1.5-.24-.69-1.14-.69-1.23 0-2.67 1.29V22.4H8.52v-9.99q0-1.23-.15-1.62-.27-.75-1.23-.75-1.32 0-2.64 1.17V22.4H.57zM22.925 14.78q0-3.63 1.89-5.82 1.89-2.22 5.01-2.22 3.27 0 5.22 2.31 1.77 2.07 1.77 5.61 0 3.78-1.92 5.94-1.89 2.13-5.07 2.13-3.12 0-5.01-2.16c-1.89-2.16-1.89-3.37-1.89-5.79m8.7-4.26q-.63-.81-1.74-.81-1.53 0-2.07 1.56-.42 1.23-.42 3.42 0 2.67.51 3.9.54 1.23 2.04 1.23 2.49 0 2.49-5.19 0-3.06-.81-4.11M38.482 9.95V7.13h11.4v2.76l-6.78 9.72h7.05l-.96 2.79h-11.31v-2.49l7.23-9.96zM52.244 22.1V7.67l3.99-.96v15.27q0 3.3-1.14 4.74-1.11 1.44-3.12 2.28l-1.68-2.22q.99-.81 1.47-1.74c.48-.93.48-1.6.48-2.94m-.45-19.29q0-1.05.72-1.77.75-.75 1.77-.75t1.74.72q.75.72.75 1.74t-.75 1.77q-.72.75-1.77.75-1.02 0-1.74-.72a2.37 2.37 0 0 1-.72-1.74M60.044 11.24q0-2.4-.24-3.87l3.57-.63q.24.84.27 1.44 1.17-1.44 3.78-1.44 1.65 0 3.03.93 2.85 1.92 2.85 6.63 0 2.49-.48 3.96-.45 1.47-1.65 2.73-1.68 1.74-4.11 1.74-1.83 0-3.21-.81.06.33.06 1.26v4.8L60.044 29zm3.9-.06v7.47q1.08.9 2.22.9 1.5 0 2.13-1.11t.63-3.75q0-2.1-.24-2.97-.51-1.71-2.07-1.71t-2.67 1.17M83.045 19.85q2.07 0 3.9-1.53l1.56 2.4q-2.61 2.13-5.79 2.13-3.3 0-5.28-2.16c-1.98-2.16-1.98-3.37-1.98-5.79q0-3.96 1.89-6.06t4.86-2.1q2.85 0 4.44 1.62 2.04 2.1 2.04 6.72v.93h-8.88v.12q0 3.72 3.24 3.72m-3.18-6.84v.06h4.65v-.18q0-1.56-.48-2.31-.57-.9-1.77-.9-2.4 0-2.4 3.33M101.975 7.49q1.71 0 3.18-1.32l1.68 2.55q-1.23 1.14-2.82 1.14-.27 0-1.05-.09.9 1.08.9 2.52 0 1.98-1.62 3.27-1.59 1.29-4.05 1.29-.3 0-.6-.03-1.59.75-1.59 1.26 0 .36.66.36l2.16.03q3.21.03 4.65 1.38 1.32 1.23 1.32 3.27 0 1.86-1.23 3.18-1.86 1.98-6.06 1.98-4.05 0-5.82-1.65-1.26-1.17-1.26-2.73 0-.84.36-1.56h3.72q-.18.51-.18.99 0 1.89 2.88 1.89 1.77 0 2.55-.51.96-.63.96-1.56 0-.99-.72-1.38t-2.1-.45q-.33 0-1.71-.03-1.71-.03-2.46-.15-1.59-.27-2.1-1.08-.3-.6-.3-1.26 0-.87.48-1.41.72-.78 2.34-1.17-3.3-.84-3.3-4.26 0-2.37 1.77-3.78t4.71-1.41q1.23 0 2.76.39 1.29.33 1.89.33m-2.25 4.5q0-2.28-2.43-2.28-2.4 0-2.4 2.28 0 2.19 2.37 2.19 2.46 0 2.46-2.19"/></svg>